<?xml version="1.0" encoding="UTF-8" standalone="no"?>
<!-- Created with Inkscape (http://www.inkscape.org/) -->
<svg xmlns:inkscape="http://www.inkscape.org/namespaces/inkscape" xmlns:rdf="http://www.w3.org/1999/02/22-rdf-syntax-ns#" xmlns="http://www.w3.org/2000/svg" xmlns:sodipodi="http://sodipodi.sourceforge.net/DTD/sodipodi-0.dtd" xmlns:ns1="http://sozi.baierouge.fr" xmlns:cc="http://creativecommons.org/ns#" xmlns:xlink="http://www.w3.org/1999/xlink" xmlns:dc="http://purl.org/dc/elements/1.1/" id="svg2" sodipodi:docname="校徽_1.svg" viewBox="0 0 500 500" version="1.1" inkscape:version="0.48.5 r10040">
  <sodipodi:namedview id="base" bordercolor="#666666" inkscape:pageshadow="2" inkscape:window-y="-4" pagecolor="#ffffff" inkscape:window-height="768" inkscape:window-maximized="1" inkscape:zoom="1.022" inkscape:window-x="-4" showgrid="false" borderopacity="1.0" inkscape:current-layer="layer1" inkscape:cx="250" inkscape:cy="250" showguides="true" inkscape:guide-bbox="true" inkscape:window-width="1280" inkscape:pageopacity="0.0" inkscape:document-units="px"/>
  <g id="layer1" inkscape:label="Layer 1" inkscape:groupmode="layer" transform="translate(0 -552.36)">
    <path id="path3766" sodipodi:rx="192.75929" sodipodi:ry="192.75929" style="stroke:#bd0a02;stroke-width:10;fill:#f9fb97" sodipodi:type="arc" d="m197.65 306.26c0 106.46-86.301 192.76-192.76 192.76s-192.76-86.301-192.76-192.76 86.301-192.76 192.76-192.76 192.76 86.301 192.76 192.76z" transform="matrix(1.1682 0 0 1.1682 247.59 447.45)" sodipodi:cy="306.26224" sodipodi:cx="4.8923678"/>
    <g id="g4278" transform="translate(5.4698 4.1996)">
      <path id="path3913" sodipodi:rx="163.71045" sodipodi:ry="163.71045" style="stroke:#1a02bd;stroke-linecap:round;stroke-width:16.697;fill:none" sodipodi:type="arc" d="m435.78 289.18c0 90.415-73.296 163.71-163.71 163.71-90.415 0-163.71-73.296-163.71-163.71 0-90.415 73.296-163.71 163.71-163.71 90.415 0 163.71 73.296 163.71 163.71z" transform="matrix(1.1978 0 0 1.1978 -78.045 457.12)" sodipodi:cy="289.17862" sodipodi:cx="272.06558"/>
      <path id="path3917" sodipodi:rx="163.71045" sodipodi:ry="163.71045" style="stroke:#1a02bd;stroke-linecap:round;stroke-width:20.436;fill:none" sodipodi:type="arc" d="m435.78 289.18c0 90.415-73.296 163.71-163.71 163.71-90.415 0-163.71-73.296-163.71-163.71 0-90.415 73.296-163.71 163.71-163.71 90.415 0 163.71 73.296 163.71 163.71z" transform="matrix(.99316 0 0 .96439 -22.367 524.62)" sodipodi:cy="289.17862" sodipodi:cx="272.06558"/>
      <path id="path3930" sodipodi:rx="22.377687" sodipodi:ry="22.377687" style="stroke:#1a02bd;fill:#1a02bd" sodipodi:type="arc" d="m273.24 76.002c0 12.359-10.019 22.378-22.378 22.378s-22.378-10.019-22.378-22.378 10.019-22.378 22.378-22.378 22.378 10.019 22.378 22.378z" transform="matrix(1.4756 0 0 1.4756 -122.34 503.5)" sodipodi:cy="76.001709" sodipodi:cx="250.86566"/>
    </g>
    <g id="g4073" transform="matrix(.99895 .045828 -.045828 .99895 34.207 -1.4146)">
      <g id="g4066" style="fill:#00ff00">
        <path id="path4055" sodipodi:nodetypes="sssss" style="fill:#00ff00" inkscape:connector-curvature="0" d="m119.94 862.27c0 5.7582 0.46793-12.037-14.498-12.037s-15.748 43.033-14.791 4.7904c0.47988-19.183 10.963-22.832 18.649-18.592 11.019 6.0789 10.64 20.081 10.64 25.839z"/>
        <path id="path4058" d="m111.54 831.61c-0.96892 5.6762 2.4867-11.787-12.265-14.305-14.752-2.5182-22.764 39.769-15.387 2.2332 3.7009-18.829 14.649-20.662 21.511-15.189 9.8392 7.8464 7.1094 21.585 6.1405 27.261z" sodipodi:nodetypes="sssss" style="fill:#00ff00" inkscape:connector-curvature="0"/>
        <path id="path4060" sodipodi:nodetypes="sssss" style="fill:#00ff00" inkscape:connector-curvature="0" d="m45.887 817.41c1.7185 5.4958-4.0391-11.349 10.244-15.816 14.283-4.4664 27.873 36.372 15.547 0.15769-6.1832-18.166-17.278-18.52-23.348-12.179-8.7027 9.0905-4.1621 22.341-2.4436 27.837z"/>
        <path id="path4062" d="m51.241 853.94c2.8221 5.0193-6.3074-10.263 6.7375-17.598 13.045-7.3346 34.817 29.792 15.241-3.0736-9.8201-16.486-20.746-14.529-25.368-7.0662-6.6257 10.699 0.56698 22.718 3.3891 27.738z" sodipodi:nodetypes="sssss" style="fill:#00ff00" inkscape:connector-curvature="0"/>
        <path id="path4064" sodipodi:nodetypes="sssss" style="fill:#00ff00" inkscape:connector-curvature="0" d="m67.791 885.69c3.9875 4.1542-8.6732-8.3602 2.1234-18.724 10.797-10.363 41.16 20.14 13.988-6.7867-13.63-13.507-23.72-8.8801-26.329-0.49895-3.7401 12.016 6.2294 21.855 10.217 26.009z"/>
      </g>
      <path id="path4026" d="m79.36 759.54c-1.2104 5.6592-2.1458 11.423-2.8122 17.293-5.3291 46.947 8.184 91.688 34.527 126.67-4.7788-1.0942-51.921-73.137-31.715-143.96z" sodipodi:nodetypes="cscc" style="stroke:#ee9f1a;stroke-linecap:round;stroke-width:15.338;fill:#f39d0e" inkscape:connector-curvature="0"/>
    </g>
    <g id="g4388" transform="translate(3.7346 4.1996)">
      <path id="path3988" sodipodi:nodetypes="zaaaaz" style="stroke:#ffffff;stroke-linecap:round;stroke-width:2.5;fill:#f39d0e" inkscape:connector-curvature="0" d="m152.66 694.62c3.336 4.4642-5.4766 15.455-11.327 20.72-5.0464 4.5416-12.572 9.4428-18.798 7.8396-5.7078-1.4696-10.296-8.2224-9.4764-14.063 0.89193-6.3536 8.206-11.677 14.461-14.276 7.739-3.2163 21.805-4.6852 25.141-0.22092z"/>
      <path id="path3994" sodipodi:nodetypes="zaaaaz" style="stroke:#ffffff;stroke-linecap:round;stroke-width:2.5;fill:#f39d0e" inkscape:connector-curvature="0" d="m113.1 687.59c5.3688 1.4946 5.1106 15.579 3.6978 23.323-1.2185 6.6789-4.1792 15.157-10.087 17.694-5.4158 2.3252-13.175-0.21525-16.095-5.3391-3.1772-5.574-0.6413-14.257 2.7207-20.138 4.1597-7.2755 14.395-17.035 19.764-15.54z"/>
      <path id="path3986" d="m137.81 726.13c1.8566 5.2546-9.8268 13.125-16.979 16.412-6.1691 2.8345-14.812 5.2747-20.279 1.8914-5.012-3.1013-7.3836-10.914-4.8631-16.246 2.742-5.8005 11.309-8.7062 18.054-9.3269 8.3455-0.76799 22.212 2.0149 24.068 7.2695z" sodipodi:nodetypes="zaaaaz" style="stroke:#ffffff;stroke-linecap:round;stroke-width:2.5;fill:#f39d0e" inkscape:connector-curvature="0"/>
      <path id="path3992" d="m78.816 702.78c5.4106-1.3357 12.105 11.059 14.679 18.498 2.2198 6.416 3.8061 15.255-0.09391 20.367-3.575 4.6859-11.581 6.2848-16.642 3.2567-5.5057-3.2942-7.5627-12.103-7.5231-18.877 0.04897-8.3806 4.1699-21.91 9.5805-23.245z" sodipodi:nodetypes="zaaaaz" style="stroke:#ffffff;stroke-linecap:round;stroke-width:2.5;fill:#f39d0e" inkscape:connector-curvature="0"/>
      <path id="path3984" sodipodi:nodetypes="zaaaaz" style="stroke:#ffffff;stroke-linecap:round;stroke-width:2.5;fill:#f39d0e" inkscape:connector-curvature="0" d="m126.63 749.43c0.81981 5.5124-12.151 11.009-19.799 12.87-6.5966 1.6052-15.546 2.3514-20.268-2.013-4.3281-4.0007-5.1654-12.122-1.6737-16.875 3.7984-5.1707 12.762-6.3883 19.502-5.7106 8.3387 0.83859 21.419 6.2163 22.239 11.729z"/>
      <path id="path3990" sodipodi:nodetypes="zaaaaz" style="stroke:#ffffff;stroke-linecap:round;stroke-width:2.5;fill:#f39d0e" inkscape:connector-curvature="0" d="m56.533 726.72c4.8369-2.7682 14.674 7.3158 19.189 13.764 3.8941 5.5613 7.8435 13.627 5.4948 19.612-2.153 5.4866-9.4138 9.2197-15.111 7.6955-6.199-1.66-10.593-9.57-12.412-16.09-2.251-8.07-1.998-22.21 2.839-24.98z"/>
      <path id="path3981" d="m115.05 770.66c0.81981 5.5124-12.151 11.009-19.799 12.87-6.5966 1.6052-15.546 2.3514-20.268-2.013-4.3281-4.0007-5.1654-12.122-1.6737-16.875 3.7984-5.1707 12.762-6.3883 19.502-5.7106 8.3387 0.83859 21.419 6.2163 22.239 11.729z" sodipodi:nodetypes="zaaaaz" style="stroke:#ffffff;stroke-linecap:round;stroke-width:2.5;fill:#f39d0e" inkscape:connector-curvature="0"/>
    </g>
    <g id="g4243" transform="matrix(-.99895 .045828 .045828 .99895 471.53 -1.4146)">
      <g id="g4245" style="fill:#00ff00">
        <path id="path4247" d="m119.94 862.27c0 5.7582 0.46793-12.037-14.498-12.037s-15.748 43.033-14.791 4.7904c0.47988-19.183 10.963-22.832 18.649-18.592 11.019 6.0789 10.64 20.081 10.64 25.839z" sodipodi:nodetypes="sssss" style="fill:#00ff00" inkscape:connector-curvature="0"/>
        <path id="path4249" sodipodi:nodetypes="sssss" style="fill:#00ff00" inkscape:connector-curvature="0" d="m111.54 831.61c-0.96892 5.6762 2.4867-11.787-12.265-14.305-14.752-2.5182-22.764 39.769-15.387 2.2332 3.7009-18.829 14.649-20.662 21.511-15.189 9.8392 7.8464 7.1094 21.585 6.1405 27.261z"/>
        <path id="path4251" d="m45.887 817.41c1.7185 5.4958-4.0391-11.349 10.244-15.816 14.283-4.4664 27.873 36.372 15.547 0.15769-6.1832-18.166-17.278-18.52-23.348-12.179-8.7027 9.0905-4.1621 22.341-2.4436 27.837z" sodipodi:nodetypes="sssss" style="fill:#00ff00" inkscape:connector-curvature="0"/>
        <path id="path4253" sodipodi:nodetypes="sssss" style="fill:#00ff00" inkscape:connector-curvature="0" d="m51.241 853.94c2.8221 5.0193-6.3074-10.263 6.7375-17.598 13.045-7.3346 34.817 29.792 15.241-3.0736-9.8201-16.486-20.746-14.529-25.368-7.0662-6.6257 10.699 0.56698 22.718 3.3891 27.738z"/>
        <path id="path4255" d="m67.791 885.69c3.9875 4.1542-8.6732-8.3602 2.1234-18.724 10.797-10.363 41.16 20.14 13.988-6.7867-13.63-13.507-23.72-8.8801-26.329-0.49895-3.7401 12.016 6.2294 21.855 10.217 26.009z" sodipodi:nodetypes="sssss" style="fill:#00ff00" inkscape:connector-curvature="0"/>
      </g>
      <path id="path4257" sodipodi:nodetypes="cscc" style="stroke:#ee9f1a;stroke-linecap:round;stroke-width:15.338;fill:#f39d0e" inkscape:connector-curvature="0" d="m79.36 759.54c-1.2104 5.6592-2.1458 11.423-2.8122 17.293-5.3291 46.947 8.184 91.688 34.527 126.67-4.7788-1.0942-51.921-73.137-31.715-143.96z"/>
    </g>
    <path id="path3061" sodipodi:nodetypes="sscscssssss" style="stroke:#140bb6;stroke-width:6;fill:#00ffff" inkscape:connector-curvature="0" d="m134.08 865.97c-21.884 0-37.554 27.875-59.438 27.875-11.787 0-21.784-8.0661-31.906-15.531 13.849 84.904 114.35 154.06 210.56 154.06 96.509 0 187.79-69.523 210.88-154.84-10.481 7.6661-20.747 16.312-32.938 16.312-21.884 0-37.554-27.875-59.438-27.875s-37.554 27.875-59.438 27.875-37.554-27.875-59.438-27.875-37.523 27.875-59.406 27.875c-21.884 0-37.554-27.875-59.438-27.875z"/>
    <path id="path3837" style="stroke:#130bb6;stroke-width:6;fill:#00ffff" d="m74.5 355.81c-5.517 0-10.637 1.7863-15.562 4.4375 21.06 68.47 111.48 119.75 194.34 119.75 83.138 0 169.24-51.57 194.78-120.41-6.0494-2.2755-11.899-3.7812-16.938-3.7812-21.884 0-37.554 27.906-59.438 27.906s-37.554-27.906-59.438-27.906-37.554 27.906-59.438 27.906-37.554-27.906-59.438-27.906-37.554 27.906-59.438 27.906-37.554-27.906-59.438-27.906z" sodipodi:nodetypes="scscsssssss" inkscape:connector-curvature="0" transform="translate(0 552.36)"/>
    <g id="g4397" transform="translate(3.7346 4.1996)">
      <path id="path4261" d="m343.6 694.62c-3.336 4.4642 5.4766 15.455 11.327 20.72 5.0464 4.5416 12.572 9.4428 18.798 7.8396 5.7078-1.4696 10.296-8.2224 9.4764-14.063-0.89193-6.3536-8.206-11.677-14.461-14.276-7.739-3.2163-21.805-4.6852-25.141-0.22092z" sodipodi:nodetypes="zaaaaz" style="stroke:#ffffff;stroke-linecap:round;stroke-width:2.5;fill:#f39d0e" inkscape:connector-curvature="0"/>
      <path id="path4263" d="m385.16 687.59c-5.3688 1.4946-5.1106 15.579-3.6978 23.323 1.2185 6.6789 4.1792 15.157 10.087 17.694 5.4158 2.3252 13.175-0.21525 16.095-5.3391 3.1772-5.574 0.6413-14.257-2.7207-20.138-4.1597-7.2755-14.395-17.035-19.764-15.54z" sodipodi:nodetypes="zaaaaz" style="stroke:#ffffff;stroke-linecap:round;stroke-width:2.5;fill:#f39d0e" inkscape:connector-curvature="0"/>
      <path id="path4265" sodipodi:nodetypes="zaaaaz" style="stroke:#ffffff;stroke-linecap:round;stroke-width:2.5;fill:#f39d0e" inkscape:connector-curvature="0" d="m360.46 726.13c-1.8566 5.2546 9.8268 13.125 16.979 16.412 6.1691 2.8345 14.812 5.2747 20.279 1.8914 5.012-3.1013 7.3836-10.914 4.8631-16.246-2.742-5.8005-11.309-8.7062-18.054-9.3269-8.3455-0.76799-22.212 2.0149-24.068 7.2695z"/>
      <path id="path4267" sodipodi:nodetypes="zaaaaz" style="stroke:#ffffff;stroke-linecap:round;stroke-width:2.5;fill:#f39d0e" inkscape:connector-curvature="0" d="m419.45 702.78c-5.4106-1.3357-12.105 11.059-14.679 18.498-2.2198 6.416-3.8061 15.255 0.0939 20.367 3.575 4.6859 11.581 6.2848 16.642 3.2567 5.5057-3.2942 7.5627-12.103 7.5231-18.877-0.049-8.3806-4.1699-21.91-9.5805-23.245z"/>
      <path id="path4269" d="m371.63 749.43c-0.81981 5.5124 12.151 11.009 19.799 12.87 6.5966 1.6052 15.546 2.3514 20.268-2.013 4.3281-4.0007 5.1654-12.122 1.6738-16.875-3.7984-5.1707-12.762-6.3883-19.502-5.7106-8.3387 0.83859-21.419 6.2163-22.239 11.729z" sodipodi:nodetypes="zaaaaz" style="stroke:#ffffff;stroke-linecap:round;stroke-width:2.5;fill:#f39d0e" inkscape:connector-curvature="0"/>
      <path id="path4271" d="m441.73 726.72c-4.8369-2.7682-14.674 7.3158-19.189 13.764-3.8941 5.5613-7.8435 13.627-5.4948 19.612 2.153 5.4866 9.4138 9.2197 15.111 7.6955 6.198-1.6582 10.592-9.5654 12.411-16.09 2.251-8.0728 1.998-22.213-2.8389-24.981z" sodipodi:nodetypes="zaaaaz" style="stroke:#ffffff;stroke-linecap:round;stroke-width:2.5;fill:#f39d0e" inkscape:connector-curvature="0"/>
      <path id="path4273" sodipodi:nodetypes="zaaaaz" style="stroke:#ffffff;stroke-linecap:round;stroke-width:2.5;fill:#f39d0e" inkscape:connector-curvature="0" d="m383.21 770.66c-0.81982 5.5124 12.151 11.009 19.799 12.87 6.5966 1.6052 15.546 2.3514 20.268-2.013 4.3281-4.0007 5.1654-12.122 1.6737-16.875-3.7984-5.1707-12.762-6.3883-19.502-5.7106-8.3387 0.83859-21.419 6.2163-22.239 11.729z"/>
    </g>
    <path id="path3868" style="stroke:#130bb6;stroke-width:6;fill:#00ffff" transform="translate(0 552.36)" d="m133.34 398.03c-12.17 0-22.41 8.63-32.87 16.28 40.14 39.69 93.81 65.69 152.81 65.69 58.56 0 111.92-25.59 151.97-64.78-10.91-7.87-21.49-17.19-34.16-17.19-21.88 0-37.55 27.88-59.43 27.88-21.89 0-37.56-27.88-59.44-27.88s-37.56 27.88-59.44 27.88-37.55-27.88-59.44-27.88z"/>
    <path id="path3870" style="stroke:#130bb6;stroke-width:6;fill:#00ffff" d="m192.22 440.25c-12.33 0-22.71 8.83-33.31 16.56 28.7 14.68 60.66 23.19 94.37 23.19 32.97 0 64.28-8.1 92.5-22.19-11.1-7.94-21.82-17.56-34.69-17.56-21.88 0-37.55 27.87-59.43 27.87-21.89 0-37.56-27.87-59.44-27.87z" transform="translate(0 552.36)"/>
    <path id="path4314" style="stroke:#140bb6;stroke-width:5;fill:none" inkscape:connector-curvature="0" d="m105.75 880.8s12.121 19.192 0 44.444"/>
    <path id="path4316" d="m165.35 924.27s12.121 19.192 0 44.444" style="stroke:#140bb6;stroke-width:5;fill:none" inkscape:connector-curvature="0"/>
    <path id="path4318" d="m284.07 924.27s12.121 19.192 0 44.444" style="stroke:#140bb6;stroke-width:5;fill:none" inkscape:connector-curvature="0"/>
    <path id="path4320" style="stroke:#140bb6;stroke-width:5;fill:none" inkscape:connector-curvature="0" d="m346.16 963.63s12.121 19.192 0 44.444"/>
    <path id="path4322" d="m226.97 963.63s12.121 19.192 0 44.444" style="stroke:#140bb6;stroke-width:5;fill:none" inkscape:connector-curvature="0"/>
    <path id="path4324" sodipodi:nodetypes="cc" style="stroke:#140bb6;stroke-width:5;fill:none" inkscape:connector-curvature="0" d="m108.79 958.58s9.0909 3.9519 3.0303 22.389"/>
    <path id="path4326" d="m402.79 924.27s12.121 19.192 0 44.444" style="stroke:#140bb6;stroke-width:5;fill:none" inkscape:connector-curvature="0"/>
    <path id="path4328" style="stroke:#140bb6;stroke-width:5;fill:none" inkscape:connector-curvature="0" d="m346.16 878.78s12.121 19.192 0 44.444"/>
    <g id="g3902" transform="translate(516.3 226.96)">
      <path id="path3801" d="m-261.97 592.84s12.72-19.569 58.708-4.8924l43.053 114.48-85.127-15.656s0.0943 9.679-3.2545 12.261c-7.2012 5.5516-19.786 5.2114-27.278 0.0596-3.6211-2.4899-4.6924-12.32-4.6924-12.32l-81.213 14.677 44.031-115.46s36.204-15.656 55.773 6.8493z" sodipodi:nodetypes="ccccaacccc" style="stroke:#000000;stroke-width:3;fill:#ffffff" inkscape:connector-curvature="0"/>
      <path id="path3803" d="m-261.66 682.83c-12.366-39.003-59.832-13.947-88.648-8.6875l-9.4947 25.312 79.86-14.688s1.5812 10.621 4.6194 12.863c7.7916 5.7494 21.321 6.8711 26.817-1.1129 1.7303-2.5139 1.9051-10.977 1.9051-10.977l84.989 15.914-8.6651-24.499c-33.811-1.5742-77.375-38.528-91.383 5.875z" sodipodi:nodetypes="cccccscccc" style="stroke:#000000;stroke-width:.99160px;fill:#e7ceb5" inkscape:connector-curvature="0"/>
      <path id="path3808" style="stroke:#000000;stroke-linecap:round;stroke-width:1.9971;fill:none" d="m-261.87 592.84v87.485" inkscape:connector-curvature="0" inkscape:path-effect="#path-effect3810" inkscape:original-d="m -261.8719,592.83731 0,87.48532"/>
      <path id="path3817" d="m-247.2 691.47-30.835 2.4557s3.1115 8.1883 15.988 7.6978c-0.38799 0.0554 12.214 2.4022 14.847-10.154z" sodipodi:nodetypes="cccc" style="stroke:#000000;fill:#ff0000" inkscape:connector-curvature="0"/>
      <path id="path3856" style="fill:#00ff00" inkscape:connector-curvature="0" d="m-331.57 491.46s4.9509 78.515 64.719 77.969v32.594h11.719v-32.594c59.768 0.54669 64.719-77.969 64.719-77.969s-55.047 2.2096-70.562 45.406c-15.511-43.206-70.594-45.406-70.594-45.406z"/>
    </g>
    <path id="path4290" sodipodi:rx="192.75929" sodipodi:ry="192.75929" style="stroke:#bd0a02;stroke-width:10;fill:none" sodipodi:type="arc" d="m197.65 306.26c0 106.46-86.301 192.76-192.76 192.76s-192.76-86.301-192.76-192.76 86.301-192.76 192.76-192.76 192.76 86.301 192.76 192.76z" transform="matrix(1.1682 0 0 1.1682 247.59 447.45)" sodipodi:cy="306.26224" sodipodi:cx="4.8923678"/>
    <path id="path4330" sodipodi:rx="4.0404038" sodipodi:ry="4.0404038" style="fill:#1410b7" sodipodi:type="arc" d="m719.19 207.07c0 2.2314-1.809 4.0404-4.0404 4.0404s-4.0404-1.809-4.0404-4.0404 1.809-4.0404 4.0404-4.0404 4.0404 1.809 4.0404 4.0404z" transform="matrix(1.375 0 0 1.375 -885.15 617.8)" sodipodi:cy="207.07071" sodipodi:cx="715.15149"/>
    <path id="path4332" sodipodi:rx="4.0404038" sodipodi:ry="4.0404038" style="fill:#1410b7" sodipodi:type="arc" d="m719.19 207.07a4.0404 4.0404 0 1 1 -8.0808 0 4.0404 4.0404 0 1 1 8.0808 0z" transform="matrix(1.375 0 0 1.375 -762.93 701.62)" sodipodi:cy="207.07071" sodipodi:cx="715.15149"/>
    <path id="path4334" sodipodi:rx="4.0404038" sodipodi:ry="4.0404038" style="fill:#1410b7" sodipodi:type="arc" d="m719.19 207.07c0 2.2314-1.809 4.0404-4.0404 4.0404s-4.0404-1.809-4.0404-4.0404 1.809-4.0404 4.0404-4.0404 4.0404 1.809 4.0404 4.0404z" transform="matrix(1.375 0 0 1.375 -645.76 701.64)" sodipodi:cy="207.07071" sodipodi:cx="715.15149"/>
    <path id="path4336" sodipodi:rx="4.0404038" sodipodi:ry="4.0404038" style="fill:#1410b7" sodipodi:type="arc" d="m719.19 207.07a4.0404 4.0404 0 1 1 -8.0808 0 4.0404 4.0404 0 1 1 8.0808 0z" transform="matrix(1.375 0 0 1.375 -707.38 660.24)" sodipodi:cy="207.07071" sodipodi:cx="715.15149"/>
    <path id="path4338" sodipodi:rx="4.0404038" sodipodi:ry="4.0404038" style="fill:#1410b7" sodipodi:type="arc" d="m719.19 207.07c0 2.2314-1.809 4.0404-4.0404 4.0404s-4.0404-1.809-4.0404-4.0404 1.809-4.0404 4.0404-4.0404 4.0404 1.809 4.0404 4.0404z" transform="matrix(1.375 0 0 1.375 -825.56 661.23)" sodipodi:cy="207.07071" sodipodi:cx="715.15149"/>
    <path id="path4340" sodipodi:rx="4.0404038" sodipodi:ry="4.0404038" style="fill:#1410b7" sodipodi:type="arc" d="m719.19 207.07a4.0404 4.0404 0 1 1 -8.0808 0 4.0404 4.0404 0 1 1 8.0808 0z" transform="matrix(1.375 0 0 1.375 -588.2 659.23)" sodipodi:cy="207.07071" sodipodi:cx="715.15149"/>
    <path id="path3831" style="fill:#ff0000" inkscape:connector-curvature="0" d="m232 879.16c-3.9644-2.3826-9.9731-8.1921-12.835-12.41-0.85594-1.2613-1.9251-2.6621-2.376-3.113-0.45084-0.45084-1.4174-1.7869-2.148-2.969-0.73057-1.1821-1.7327-2.1492-2.227-2.1492s-1.4595 1.2678-2.145 2.8173c-1.8947 4.2832-9.2258 11.398-13.974 13.561-4.5351 2.0662-7.2612 2.7949-7.2612 1.941 0-0.64903-0.0485-0.60378 4.9449-4.614 5.4487-4.3758 11.007-12.683 11.616-17.362 0.21191-1.6262 0.1192-1.6446-4.1869-0.82941-2.945 0.55751-4.9693-0.20977-6.2966-2.3866-1.6511-2.708-1.5776-5.6573 0.16899-6.7761 0.7542-0.48313 3.9261-1.2754 7.0487-1.7606 3.1226-0.48517 5.9797-1.1844 6.3491-1.5538 0.36941-0.3694 0.83133-3.5528 1.0265-7.0742 0.30152-5.4402 0.55019-6.5978 1.6545-7.7016 1.5299-1.5292 3.455-1.1834 4.7635 0.8555 0.72397 1.1281 0.72739 2.1402 0.023 6.8101-0.45505 3.0168-0.6303 5.6861-0.38944 5.9317 0.24085 0.24567 2.0744 0.1787 4.0746-0.14883 6.7813-1.1104 8.461-0.86414 10.582 1.5517 2.0998 2.3916 2.4546 4.8272 0.82495 5.6637-0.5866 0.30112-3.0918 0.7275-5.5671 0.9475-5.1241 0.45543-9.6807 1.4836-10.184 2.2978-0.1879 0.30403 1.032 1.9844 2.7108 3.7341 1.6789 1.7497 5.0597 5.3392 7.513 7.9765 3.9172 4.2111 12.422 10.75 16.954 13.034 0.838 0.42246 2.3464 1.4417 3.352 2.2651l1.8284 1.497-3.7197 0.0219c-2.0458 0.012-5.3369 0.16868-7.3134 0.34805-2.2767 0.20662-4.0404 0.0577-4.8126-0.40641z"/>
    <path id="path3858" style="fill:#ff0000" inkscape:connector-curvature="0" d="m302.83 822.79c-5.8117 0.63004-11.699 1.3498-17.347 2.8958-1.6237 0.65344-1.0146 2.7191 0.0471 3.6104 1.3298 1.0474 2.9605 3.4814 1.1564 4.842-2.1558 1.6287-4.8374 0.18993-7.2301 0.70516-2.8068 1.496-2.819 5.4876-1.6078 8.0575 0.949 2.0737 2.5873 4.2515 4.8702 4.8232 1.9243-0.5884 1.6362-3.2359 0.79917-4.6446-0.81173-1.5384-0.40631-3.9656 1.6172-4.1839 1.2277-0.48198 3.1199-0.0544 2.8488 1.5984-0.29601 1.7582-3.6798 1.2108-3.2249 3.3377 0.31129 1.5969 1.8426 2.5937 3.4411 2.2471 6.3403-0.73625 12.609-2.1518 18.983-2.5009 4.1704-0.97183 7.9159-5.1038 7.5216-9.5525-0.11983-1.4887-1.247-2.7648-2.8112-2.7454-2.2592-0.49721-4.7926 0.25718-6.9293-0.62993-0.9149-1.1377-0.89954-3.0305 0.69575-3.554 1.0334-0.19643 2.2747-1.1568 1.4667-2.2753-0.88029-1.3903-2.6754-2.1695-4.2967-2.0308zm-35.22 4.5224c-2.0158-0.0366-2.5088 2.6483-1.2693 3.9018 2.0317 2.4902 4.2232 5.1988 7.2396 6.4968 1.9612 0.17845 2.9228-2.386 2.5668-4.0241-0.88683-3.64-4.6666-5.9028-8.1798-6.384-0.11909 0.003-0.23856-0.006-0.35728 0.009zm28.648 1.5231c0.80963 0.13722 2.8153-0.46968 2.3881 1.053-0.2107 2.2026-3.0475 2.0583-4.6634 2.5009-0.82261 0.24789-1.913 0.29519-1.8428-0.86499-0.26982-2.1398 2.566-2.6373 4.1181-2.689zm11.884 4.9831c0.92206-0.0368 0.24817 1.5278 0.10347 2.0026-0.82913 2.1757-2.9362 4.2628-5.4344 3.2907-1.1173 0.0637-1.5547-1.1266-0.88378-1.9368 1.2448-2.1965 3.7668-3.376 6.2147-3.3565zm-11.527 1.8616c1.4433-0.14652 0.57227 1.7926 0.25386 2.4727-0.67219 1.6331-2.3598 3.4869-4.2403 2.971-0.22702-1.3197-0.53204-3.0765 0.17863-4.2873 1.1426-0.6597 2.5254-1.0245 3.8078-1.1565zm-31.149 7.6626c-1.7815-0.0307-2.4214 2.1514-1.4291 3.4223 1.3665 1.9181 3.2592 3.9144 5.6318 4.4472 2.0184-0.0806 2.3986-2.7496 2.1625-4.3343-0.75556-2.438-3.7239-3.3068-5.9985-3.5446-0.12225 0.002-0.24471-0.005-0.36668 0.009zm40.438 1.8522c-1.0866 0.44188-2.0658 1.1528-3.3565 1.0154-5.7838 0.19843-11.451 1.7537-17.168 2.4069-1.8537 0.0872-2.4541 2.0956-2.1436 3.6574 0.53329 3.665 1.7147 7.6054 4.3719 10.248 1.2135 1.2578 3.2839-0.33798 4.4566 0.39488 0.0537 0.93066 0.39552 2.4588-0.2135 2.9457-4.6205 0.83727-9.4987 0.8137-13.918 2.4698-1.4295 0.55117-1.0879 2.3833-0.0189 3.1309 2.1214 2.1386 5.548 1.1628 8.208 0.9308 2.0582-0.18752 4.3737-0.97735 6.2994-0.59234 0.73047 3.28-0.0745 6.9898 1.3821 10.107 0.51241 1.1807 2.1115 0.98019 2.5385-0.16923 1.8178-3.0859 1.4182-6.8353 1.9744-10.182 0.22556-1.2824 2.1033-0.63716 2.9884-0.98845 4.4718-0.53869 9.137-0.0467 13.503-1.08 1.2728-1.424-0.58498-3.3747-1.1564-4.6916-1.3023-0.74455-3.4478 0.0188-5.0566-0.17764-3.4908-0.0468-7.1115 0.48186-10.541 0.008 0.009-1.9577 2.6068-1.8926 3.9112-2.548 3.6623-1.0121 5.8526-4.3743 7.0515-7.7661 1.2548-2.8695 0.78879-6.8144-1.7582-8.8097-0.41409-0.23537-0.86679-0.37196-1.3539-0.31026zm-3.5728 4.4284c1.1548 0.45473 0.44654 2.1629 0.18804 3.0274-0.73001 1.791-1.9067 4.3353-4.1275 4.3532-2.7169-0.43623-5.1942 1.548-7.7943 1.5419-1.4434-1.2553-2.4908-3.5038-2.0214-5.4344 4.0806-1.7754 8.5912-2.6168 12.965-3.4317 0.24454-0.0242 0.52953-0.05 0.78978-0.0564zm-3.4976 2.2095c-2.6794 0.42132-5.3791 1.0605-7.9447 1.9274-1.1994 0.33031-1.1264 2.1435 0.16923 2.2377 2.938 0.28102 6.0717-0.48956 8.5276-2.1154 1.1298-0.7959 0.78569-2.2794-0.75217-2.0496zm-30.387 9.9003c-2.0785 1.4382-3.7545 3.6198-5.0236 5.8351-1.6662 3.3022-0.14111 7.2953 1.9585 10.007 1.3238 1.5949 3.6585 0.57655 4.4095-1.0342 1.315-1.3358 0.68855-3.2092-0.25893-4.5409-1.9748-2.9168-0.82362-6.4989-0.15475-9.6373-0.0557-0.44058-0.48366-0.77984-0.93081-0.62995z"/>
  </g>
  <metadata>
    <rdf:RDF>
      <cc:Work>
        <dc:format>image/svg+xml</dc:format>
        <dc:type rdf:resource="http://purl.org/dc/dcmitype/StillImage"/>
        <cc:license rdf:resource="http://creativecommons.org/licenses/publicdomain/"/>
        <dc:publisher>
          <cc:Agent rdf:about="http://openclipart.org/">
            <dc:title>Openclipart</dc:title>
          </cc:Agent>
        </dc:publisher>
      </cc:Work>
      <cc:License rdf:about="http://creativecommons.org/licenses/publicdomain/">
        <cc:permits rdf:resource="http://creativecommons.org/ns#Reproduction"/>
        <cc:permits rdf:resource="http://creativecommons.org/ns#Distribution"/>
        <cc:permits rdf:resource="http://creativecommons.org/ns#DerivativeWorks"/>
      </cc:License>
    </rdf:RDF>
  </metadata>
</svg>
